<?xml version="1.0" encoding="UTF-8" standalone="no"?>
<!DOCTYPE svg PUBLIC "-//W3C//DTD SVG 1.1//EN" "http://www.w3.org/Graphics/SVG/1.1/DTD/svg11.dtd">
<svg xmlns="http://www.w3.org/2000/svg" version="1.1" viewBox="0.00 0.00 715.00 555.00">
<g stroke-width="2.00" fill="none" stroke-linecap="butt">
<path stroke="#e6c899" vector-effect="non-scaling-stroke" d="
  M 423.86 105.21
  C 450.54 127.10 469.34 156.27 478.08 189.84
  C 479.72 196.13 480.35 201.31 481.64 207.48
  Q 482.78 212.90 487.70 212.73
  Q 495.59 212.46 495.23 204.51
  Q 494.99 199.30 493.83 193.89
  C 485.40 154.61 464.11 119.53 433.03 94.03
  C 401.95 68.53 363.40 54.49 323.23 53.90
  Q 317.69 53.81 312.54 54.60
  Q 304.67 55.80 305.94 63.59
  Q 306.74 68.44 312.28 68.50
  C 318.58 68.57 323.78 68.17 330.27 68.55
  C 364.90 70.57 397.18 83.32 423.86 105.21"
/>
<path stroke="#e6c899" vector-effect="non-scaling-stroke" d="
  M 315.92 98.65
  C 307.51 99.57 307.98 111.60 315.83 112.66
  Q 319.17 113.10 324.43 113.03
  Q 327.88 112.98 333.02 113.55
  Q 359.12 116.45 380.96 129.04
  C 400.66 140.40 415.99 158.03 426.70 178.07
  Q 435.71 194.94 437.75 211.36
  Q 438.38 216.44 439.80 218.12
  Q 442.85 221.73 447.39 220.41
  C 450.26 219.58 451.85 218.19 452.17 215.23
  Q 452.46 212.53 451.76 208.25
  Q 447.79 183.82 434.50 162.76
  Q 396.82 103.09 325.51 98.20
  Q 322.19 97.97 315.92 98.65"
/>
<path stroke="#cda589" vector-effect="non-scaling-stroke" d="
  M 375.96 335.24
  L 376.02 267.52
  A 0.44 0.43 -89.4 0 1 376.46 267.08
  Q 389.61 267.16 390.24 267.17
  Q 398.74 267.33 400.04 260.04
  C 400.63 256.75 399.12 254.06 396.52 252.23
  Q 392.45 249.38 386.95 245.29
  Q 352.22 219.42 292.36 175.90
  Q 286.36 171.54 282.46 169.05
  C 276.60 165.31 272.30 164.26 265.90 167.22
  Q 262.28 168.90 258.03 172.02
  Q 245.73 181.06 159.57 244.35
  C 155.33 247.46 153.10 248.95 149.20 251.85
  Q 145.77 254.39 145.16 256.80
  C 144.00 261.43 146.64 266.04 151.50 266.97
  Q 152.48 267.16 158.54 267.19
  Q 163.73 267.22 169.20 266.99
  A 0.26 0.25 -1.1 0 1 169.47 267.24
  L 169.91 335.54"
/>
<path stroke="#b7af8f" vector-effect="non-scaling-stroke" d="
  M 169.91 335.54
  Q 158.02 336.09 148.26 339.28
  Q 139.99 341.98 134.19 344.95
  Q 116.17 354.19 89.95 371.19
  C 85.98 373.77 83.19 376.70 83.00 380.76
  Q 82.65 388.09 83.24 397.28
  Q 83.52 401.69 86.68 402.48
  Q 88.51 402.94 93.19 401.55
  Q 117.60 394.28 134.62 392.72
  Q 148.89 391.40 173.67 392.38
  Q 177.09 392.51 180.70 393.05
  C 186.50 393.93 191.93 393.97 198.25 394.95
  Q 230.18 399.90 253.62 406.67
  Q 281.17 414.63 298.65 420.92
  C 329.45 432.00 353.27 440.22 379.65 446.59
  Q 389.75 449.03 409.13 451.53
  Q 416.27 452.45 426.42 452.78
  Q 443.73 453.34 443.75 453.34
  Q 461.09 453.12 478.43 451.08
  C 481.77 450.69 484.69 449.90 487.69 449.03
  A 2.11 1.89 66.1 0 0 488.66 446.03
  Q 488.24 445.31 487.00 445.26
  Q 474.82 444.77 473.28 444.62
  Q 450.84 442.44 430.20 437.93
  Q 407.00 432.85 388.40 425.72
  Q 358.94 414.42 336.59 400.64
  Q 290.92 372.47 283.21 368.05
  Q 269.38 360.10 248.05 350.41"
/>
<path stroke="#cda589" vector-effect="non-scaling-stroke" d="
  M 248.05 350.41
  Q 248.23 330.92 248.11 311.74
  Q 248.03 298.83 256.09 291.71
  C 271.59 277.98 296.64 287.70 297.04 309.50
  Q 297.42 330.74 297.38 360.50
  Q 297.37 367.42 302.60 371.21"
/>
<path stroke="#b7af8f" vector-effect="non-scaling-stroke" d="
  M 302.60 371.21
  Q 305.22 373.66 306.50 374.30
  Q 340.66 391.28 376.05 405.98
  Q 395.54 414.06 417.73 420.40
  Q 429.05 423.63 438.46 425.47
  Q 453.26 428.35 459.51 429.28
  Q 479.15 432.20 502.35 432.48
  Q 514.09 432.62 526.26 431.52
  Q 541.34 430.15 550.01 428.74
  Q 568.49 425.75 591.12 418.84
  C 607.00 413.99 622.78 406.73 637.66 397.91
  Q 640.95 395.96 641.56 394.35
  Q 643.61 388.90 639.17 386.45
  A 2.95 2.92 56.8 0 0 637.53 386.10
  Q 631.25 386.60 624.99 386.72
  C 606.09 387.08 588.34 381.44 571.67 372.51
  C 568.00 370.55 562.56 368.82 563.25 363.48
  Q 565.48 346.34 568.67 328.70
  Q 572.13 309.49 579.38 289.94
  C 580.59 286.69 583.18 280.95 586.45 280.42
  Q 589.68 279.90 596.07 278.54
  Q 622.87 272.87 640.03 250.75
  Q 652.79 234.30 658.66 214.71
  C 659.87 210.67 656.07 210.66 653.49 211.20
  Q 637.74 214.47 630.94 216.43
  C 614.85 221.09 597.97 231.48 588.43 245.94
  C 582.35 255.14 577.96 263.81 574.18 274.48
  Q 572.05 280.47 568.52 289.51
  A 0.35 0.35 0.0 0 1 567.84 289.42
  Q 566.82 278.93 564.39 267.28
  Q 564.22 266.47 563.77 259.76
  A 5.13 5.08 53.6 0 1 564.08 257.65
  Q 565.07 255.03 567.39 251.63
  C 572.11 244.74 579.06 236.73 583.30 229.34
  C 592.03 214.13 597.69 197.20 598.04 179.76
  Q 598.24 169.44 597.66 164.26
  Q 596.63 155.25 593.11 139.11
  C 592.62 136.86 591.55 136.01 589.40 136.07
  Q 588.23 136.10 586.06 137.79
  Q 566.50 153.02 555.03 175.04
  C 543.55 197.07 542.74 221.43 547.82 245.48
  C 550.18 256.64 554.55 271.44 556.43 283.57
  Q 558.67 298.02 558.78 301.79
  Q 559.09 312.74 558.31 326.19
  A 0.56 0.56 0.0 0 1 557.80 326.71
  L 557.48 326.75
  A 0.24 0.23 83.6 0 1 557.23 326.54
  L 556.71 321.30
  A 2.45 2.02 39.5 0 0 556.64 320.94
  C 552.16 305.44 546.54 291.15 536.70 278.55
  C 522.95 260.95 501.13 250.87 479.02 248.91
  C 475.69 248.61 473.42 249.02 473.01 252.45
  A 2.37 2.22 -51.7 0 0 473.09 253.40
  C 475.02 259.81 478.27 266.16 479.76 270.02
  Q 484.96 283.44 494.20 294.12
  C 507.00 308.93 526.56 316.42 545.12 321.39
  C 554.70 323.96 551.45 348.34 550.36 355.88
  C 550.02 358.23 548.97 359.74 546.51 358.58
  C 534.53 352.97 523.32 344.32 512.73 338.18
  Q 504.77 333.56 499.04 329.63
  Q 490.11 323.52 475.26 314.64
  Q 465.14 308.59 459.05 306.32
  Q 442.58 300.17 426.42 306.26
  C 423.64 307.32 420.71 309.07 417.96 310.58
  C 412.13 313.79 406.66 317.71 400.82 321.04
  Q 388.49 328.07 375.96 335.24"
/>
<path stroke="#895d2f" vector-effect="non-scaling-stroke" d="
  M 302.60 371.21
  Q 316.93 368.66 326.29 363.79
  Q 343.36 354.91 375.96 335.24"
/>
<path stroke="#895d2f" vector-effect="non-scaling-stroke" d="
  M 248.05 350.41
  Q 222.94 339.08 198.87 336.41
  Q 188.43 335.26 169.91 335.54"
/>
<path stroke="#e6c899" vector-effect="non-scaling-stroke" d="
  M 396.99 222.93
  C 398.29 230.40 410.75 230.17 410.57 222.00
  Q 410.42 215.42 407.78 207.00
  Q 402.79 191.07 392.91 178.39
  Q 367.86 146.20 326.99 141.96
  C 321.66 141.41 314.15 141.73 313.77 148.76
  Q 313.38 155.99 320.42 156.02
  C 340.02 156.09 357.49 163.25 372.20 176.80
  Q 392.17 195.22 396.99 222.93"
/>
<path stroke="#b7af8f" vector-effect="non-scaling-stroke" d="
  M 561.80 242.86
  A 0.49 0.49 0.0 0 0 562.76 242.98
  Q 564.43 236.89 566.88 229.96
  Q 569.46 222.64 572.20 211.22
  Q 572.60 209.56 577.75 184.01
  A 1.48 1.48 0.0 0 0 576.87 182.35
  L 576.82 182.33
  A 1.12 1.12 0.0 0 0 575.33 182.98
  Q 567.31 205.06 563.85 226.06
  Q 563.52 228.05 562.74 236.05
  C 562.52 238.38 561.74 240.84 561.80 242.86"
/>
<path stroke="#b7af8f" vector-effect="non-scaling-stroke" d="
  M 594.75 264.69
  Q 594.98 264.69 595.25 264.56
  Q 595.60 264.39 595.68 264.29
  Q 599.50 259.54 604.83 255.74
  C 608.25 253.30 613.43 249.67 614.87 246.25
  A 0.52 0.52 0.0 0 0 614.17 245.57
  Q 605.60 249.49 598.14 256.67
  Q 594.97 259.73 594.32 264.22
  A 0.42 0.41 2.9 0 0 594.75 264.69"
/>
<path stroke="#b7af8f" vector-effect="non-scaling-stroke" d="
  M 540.01 306.77
  A 1.51 1.51 0.0 0 0 539.78 305.30
  Q 530.86 293.95 520.10 283.48
  C 518.28 281.71 513.27 277.82 509.69 277.03
  A 0.75 0.75 0.0 0 0 508.86 278.09
  Q 509.80 279.98 511.79 281.47
  Q 524.03 290.66 539.06 306.99
  A 0.57 0.56 -55.9 0 0 540.00 306.80
  L 540.01 306.77"
/>
</g>
<path fill="#fbf6e9" d="
  M 715.00 0.00
  L 715.00 555.00
  L 0.00 555.00
  L 0.00 0.00
  L 715.00 0.00
  Z
  M 423.86 105.21
  C 450.54 127.10 469.34 156.27 478.08 189.84
  C 479.72 196.13 480.35 201.31 481.64 207.48
  Q 482.78 212.90 487.70 212.73
  Q 495.59 212.46 495.23 204.51
  Q 494.99 199.30 493.83 193.89
  C 485.40 154.61 464.11 119.53 433.03 94.03
  C 401.95 68.53 363.40 54.49 323.23 53.90
  Q 317.69 53.81 312.54 54.60
  Q 304.67 55.80 305.94 63.59
  Q 306.74 68.44 312.28 68.50
  C 318.58 68.57 323.78 68.17 330.27 68.55
  C 364.90 70.57 397.18 83.32 423.86 105.21
  Z
  M 315.92 98.65
  C 307.51 99.57 307.98 111.60 315.83 112.66
  Q 319.17 113.10 324.43 113.03
  Q 327.88 112.98 333.02 113.55
  Q 359.12 116.45 380.96 129.04
  C 400.66 140.40 415.99 158.03 426.70 178.07
  Q 435.71 194.94 437.75 211.36
  Q 438.38 216.44 439.80 218.12
  Q 442.85 221.73 447.39 220.41
  C 450.26 219.58 451.85 218.19 452.17 215.23
  Q 452.46 212.53 451.76 208.25
  Q 447.79 183.82 434.50 162.76
  Q 396.82 103.09 325.51 98.20
  Q 322.19 97.97 315.92 98.65
  Z
  M 375.96 335.24
  L 376.02 267.52
  A 0.44 0.43 -89.4 0 1 376.46 267.08
  Q 389.61 267.16 390.24 267.17
  Q 398.74 267.33 400.04 260.04
  C 400.63 256.75 399.12 254.06 396.52 252.23
  Q 392.45 249.38 386.95 245.29
  Q 352.22 219.42 292.36 175.90
  Q 286.36 171.54 282.46 169.05
  C 276.60 165.31 272.30 164.26 265.90 167.22
  Q 262.28 168.90 258.03 172.02
  Q 245.73 181.06 159.57 244.35
  C 155.33 247.46 153.10 248.95 149.20 251.85
  Q 145.77 254.39 145.16 256.80
  C 144.00 261.43 146.64 266.04 151.50 266.97
  Q 152.48 267.16 158.54 267.19
  Q 163.73 267.22 169.20 266.99
  A 0.26 0.25 -1.1 0 1 169.47 267.24
  L 169.91 335.54
  Q 158.02 336.09 148.26 339.28
  Q 139.99 341.98 134.19 344.95
  Q 116.17 354.19 89.95 371.19
  C 85.98 373.77 83.19 376.70 83.00 380.76
  Q 82.65 388.09 83.24 397.28
  Q 83.52 401.69 86.68 402.48
  Q 88.51 402.94 93.19 401.55
  Q 117.60 394.28 134.62 392.72
  Q 148.89 391.40 173.67 392.38
  Q 177.09 392.51 180.70 393.05
  C 186.50 393.93 191.93 393.97 198.25 394.95
  Q 230.18 399.90 253.62 406.67
  Q 281.17 414.63 298.65 420.92
  C 329.45 432.00 353.27 440.22 379.65 446.59
  Q 389.75 449.03 409.13 451.53
  Q 416.27 452.45 426.42 452.78
  Q 443.73 453.34 443.75 453.34
  Q 461.09 453.12 478.43 451.08
  C 481.77 450.69 484.69 449.90 487.69 449.03
  A 2.11 1.89 66.1 0 0 488.66 446.03
  Q 488.24 445.31 487.00 445.26
  Q 474.82 444.77 473.28 444.62
  Q 450.84 442.44 430.20 437.93
  Q 407.00 432.85 388.40 425.72
  Q 358.94 414.42 336.59 400.64
  Q 290.92 372.47 283.21 368.05
  Q 269.38 360.10 248.05 350.41
  Q 248.23 330.92 248.11 311.74
  Q 248.03 298.83 256.09 291.71
  C 271.59 277.98 296.64 287.70 297.04 309.50
  Q 297.42 330.74 297.38 360.50
  Q 297.37 367.42 302.60 371.21
  Q 305.22 373.66 306.50 374.30
  Q 340.66 391.28 376.05 405.98
  Q 395.54 414.06 417.73 420.40
  Q 429.05 423.63 438.46 425.47
  Q 453.26 428.35 459.51 429.28
  Q 479.15 432.20 502.35 432.48
  Q 514.09 432.62 526.26 431.52
  Q 541.34 430.15 550.01 428.74
  Q 568.49 425.75 591.12 418.84
  C 607.00 413.99 622.78 406.73 637.66 397.91
  Q 640.95 395.96 641.56 394.35
  Q 643.61 388.90 639.17 386.45
  A 2.95 2.92 56.8 0 0 637.53 386.10
  Q 631.25 386.60 624.99 386.72
  C 606.09 387.08 588.34 381.44 571.67 372.51
  C 568.00 370.55 562.56 368.82 563.25 363.48
  Q 565.48 346.34 568.67 328.70
  Q 572.13 309.49 579.38 289.94
  C 580.59 286.69 583.18 280.95 586.45 280.42
  Q 589.68 279.90 596.07 278.54
  Q 622.87 272.87 640.03 250.75
  Q 652.79 234.30 658.66 214.71
  C 659.87 210.67 656.07 210.66 653.49 211.20
  Q 637.74 214.47 630.94 216.43
  C 614.85 221.09 597.97 231.48 588.43 245.94
  C 582.35 255.14 577.96 263.81 574.18 274.48
  Q 572.05 280.47 568.52 289.51
  A 0.35 0.35 0.0 0 1 567.84 289.42
  Q 566.82 278.93 564.39 267.28
  Q 564.22 266.47 563.77 259.76
  A 5.13 5.08 53.6 0 1 564.08 257.65
  Q 565.07 255.03 567.39 251.63
  C 572.11 244.74 579.06 236.73 583.30 229.34
  C 592.03 214.13 597.69 197.20 598.04 179.76
  Q 598.24 169.44 597.66 164.26
  Q 596.63 155.25 593.11 139.11
  C 592.62 136.86 591.55 136.01 589.40 136.07
  Q 588.23 136.10 586.06 137.79
  Q 566.50 153.02 555.03 175.04
  C 543.55 197.07 542.74 221.43 547.82 245.48
  C 550.18 256.64 554.55 271.44 556.43 283.57
  Q 558.67 298.02 558.78 301.79
  Q 559.09 312.74 558.31 326.19
  A 0.56 0.56 0.0 0 1 557.80 326.71
  L 557.48 326.75
  A 0.24 0.23 83.6 0 1 557.23 326.54
  L 556.71 321.30
  A 2.45 2.02 39.5 0 0 556.64 320.94
  C 552.16 305.44 546.54 291.15 536.70 278.55
  C 522.95 260.95 501.13 250.87 479.02 248.91
  C 475.69 248.61 473.42 249.02 473.01 252.45
  A 2.37 2.22 -51.7 0 0 473.09 253.40
  C 475.02 259.81 478.27 266.16 479.76 270.02
  Q 484.96 283.44 494.20 294.12
  C 507.00 308.93 526.56 316.42 545.12 321.39
  C 554.70 323.96 551.45 348.34 550.36 355.88
  C 550.02 358.23 548.97 359.74 546.51 358.58
  C 534.53 352.97 523.32 344.32 512.73 338.18
  Q 504.77 333.56 499.04 329.63
  Q 490.11 323.52 475.26 314.64
  Q 465.14 308.59 459.05 306.32
  Q 442.58 300.17 426.42 306.26
  C 423.64 307.32 420.71 309.07 417.96 310.58
  C 412.13 313.79 406.66 317.71 400.82 321.04
  Q 388.49 328.07 375.96 335.24
  Z
  M 396.99 222.93
  C 398.29 230.40 410.75 230.17 410.57 222.00
  Q 410.42 215.42 407.78 207.00
  Q 402.79 191.07 392.91 178.39
  Q 367.86 146.20 326.99 141.96
  C 321.66 141.41 314.15 141.73 313.77 148.76
  Q 313.38 155.99 320.42 156.02
  C 340.02 156.09 357.49 163.25 372.20 176.80
  Q 392.17 195.22 396.99 222.93
  Z"
/>
<path fill="#d09948" d="
  M 433.03 94.03
  C 464.11 119.53 485.40 154.61 493.83 193.89
  Q 494.99 199.30 495.23 204.51
  Q 495.59 212.46 487.70 212.73
  Q 482.78 212.90 481.64 207.48
  C 480.35 201.31 479.72 196.13 478.08 189.84
  C 469.34 156.27 450.54 127.10 423.86 105.21
  C 397.18 83.32 364.90 70.57 330.27 68.55
  C 323.78 68.17 318.58 68.57 312.28 68.50
  Q 306.74 68.44 305.94 63.59
  Q 304.67 55.80 312.54 54.60
  Q 317.69 53.81 323.23 53.90
  C 363.40 54.49 401.95 68.53 433.03 94.03
  Z"
/>
<path fill="#d09948" d="
  M 315.83 112.66
  C 307.98 111.60 307.51 99.57 315.92 98.65
  Q 322.19 97.97 325.51 98.20
  Q 396.82 103.09 434.50 162.76
  Q 447.79 183.82 451.76 208.25
  Q 452.46 212.53 452.17 215.23
  C 451.85 218.19 450.26 219.58 447.39 220.41
  Q 442.85 221.73 439.80 218.12
  Q 438.38 216.44 437.75 211.36
  Q 435.71 194.94 426.70 178.07
  C 415.99 158.03 400.66 140.40 380.96 129.04
  Q 359.12 116.45 333.02 113.55
  Q 327.88 112.98 324.43 113.03
  Q 319.17 113.10 315.83 112.66
  Z"
/>
<path fill="#736734" d="
  M 302.60 371.21
  Q 316.93 368.66 326.29 363.79
  Q 343.36 354.91 375.96 335.24
  Q 388.49 328.07 400.82 321.04
  C 406.66 317.71 412.13 313.79 417.96 310.58
  C 420.71 309.07 423.64 307.32 426.42 306.26
  Q 442.58 300.17 459.05 306.32
  Q 465.14 308.59 475.26 314.64
  Q 490.11 323.52 499.04 329.63
  Q 504.77 333.56 512.73 338.18
  C 523.32 344.32 534.53 352.97 546.51 358.58
  C 548.97 359.74 550.02 358.23 550.36 355.88
  C 551.45 348.34 554.70 323.96 545.12 321.39
  C 526.56 316.42 507.00 308.93 494.20 294.12
  Q 484.96 283.44 479.76 270.02
  C 478.27 266.16 475.02 259.81 473.09 253.40
  A 2.37 2.22 -51.7 0 1 473.01 252.45
  C 473.42 249.02 475.69 248.61 479.02 248.91
  C 501.13 250.87 522.95 260.95 536.70 278.55
  C 546.54 291.15 552.16 305.44 556.64 320.94
  A 2.45 2.02 39.5 0 1 556.71 321.30
  L 557.23 326.54
  A 0.24 0.23 83.6 0 0 557.48 326.75
  L 557.80 326.71
  A 0.56 0.56 0.0 0 0 558.31 326.19
  Q 559.09 312.74 558.78 301.79
  Q 558.67 298.02 556.43 283.57
  C 554.55 271.44 550.18 256.64 547.82 245.48
  C 542.74 221.43 543.55 197.07 555.03 175.04
  Q 566.50 153.02 586.06 137.79
  Q 588.23 136.10 589.40 136.07
  C 591.55 136.01 592.62 136.86 593.11 139.11
  Q 596.63 155.25 597.66 164.26
  Q 598.24 169.44 598.04 179.76
  C 597.69 197.20 592.03 214.13 583.30 229.34
  C 579.06 236.73 572.11 244.74 567.39 251.63
  Q 565.07 255.03 564.08 257.65
  A 5.13 5.08 53.6 0 0 563.77 259.76
  Q 564.22 266.47 564.39 267.28
  Q 566.82 278.93 567.84 289.42
  A 0.35 0.35 0.0 0 0 568.52 289.51
  Q 572.05 280.47 574.18 274.48
  C 577.96 263.81 582.35 255.14 588.43 245.94
  C 597.97 231.48 614.85 221.09 630.94 216.43
  Q 637.74 214.47 653.49 211.20
  C 656.07 210.66 659.87 210.67 658.66 214.71
  Q 652.79 234.30 640.03 250.75
  Q 622.87 272.87 596.07 278.54
  Q 589.68 279.90 586.45 280.42
  C 583.18 280.95 580.59 286.69 579.38 289.94
  Q 572.13 309.49 568.67 328.70
  Q 565.48 346.34 563.25 363.48
  C 562.56 368.82 568.00 370.55 571.67 372.51
  C 588.34 381.44 606.09 387.08 624.99 386.72
  Q 631.25 386.60 637.53 386.10
  A 2.95 2.92 56.8 0 1 639.17 386.45
  Q 643.61 388.90 641.56 394.35
  Q 640.95 395.96 637.66 397.91
  C 622.78 406.73 607.00 413.99 591.12 418.84
  Q 568.49 425.75 550.01 428.74
  Q 541.34 430.15 526.26 431.52
  Q 514.09 432.62 502.35 432.48
  Q 479.15 432.20 459.51 429.28
  Q 453.26 428.35 438.46 425.47
  Q 429.05 423.63 417.73 420.40
  Q 395.54 414.06 376.05 405.98
  Q 340.66 391.28 306.50 374.30
  Q 305.22 373.66 302.60 371.21
  Z
  M 561.80 242.86
  A 0.49 0.49 0.0 0 0 562.76 242.98
  Q 564.43 236.89 566.88 229.96
  Q 569.46 222.64 572.20 211.22
  Q 572.60 209.56 577.75 184.01
  A 1.48 1.48 0.0 0 0 576.87 182.35
  L 576.82 182.33
  A 1.12 1.12 0.0 0 0 575.33 182.98
  Q 567.31 205.06 563.85 226.06
  Q 563.52 228.05 562.74 236.05
  C 562.52 238.38 561.74 240.84 561.80 242.86
  Z
  M 594.75 264.69
  Q 594.98 264.69 595.25 264.56
  Q 595.60 264.39 595.68 264.29
  Q 599.50 259.54 604.83 255.74
  C 608.25 253.30 613.43 249.67 614.87 246.25
  A 0.52 0.52 0.0 0 0 614.17 245.57
  Q 605.60 249.49 598.14 256.67
  Q 594.97 259.73 594.32 264.22
  A 0.42 0.41 2.9 0 0 594.75 264.69
  Z
  M 540.01 306.77
  A 1.51 1.51 0.0 0 0 539.78 305.30
  Q 530.86 293.95 520.10 283.48
  C 518.28 281.71 513.27 277.82 509.69 277.03
  A 0.75 0.75 0.0 0 0 508.86 278.09
  Q 509.80 279.98 511.79 281.47
  Q 524.03 290.66 539.06 306.99
  A 0.57 0.56 -55.9 0 0 540.00 306.80
  L 540.01 306.77
  Z"
/>
<path fill="#d09948" d="
  M 410.57 222.00
  C 410.75 230.17 398.29 230.40 396.99 222.93
  Q 392.17 195.22 372.20 176.80
  C 357.49 163.25 340.02 156.09 320.42 156.02
  Q 313.38 155.99 313.77 148.76
  C 314.15 141.73 321.66 141.41 326.99 141.96
  Q 367.86 146.20 392.91 178.39
  Q 402.79 191.07 407.78 207.00
  Q 410.42 215.42 410.57 222.00
  Z"
/>
<path fill="#9f5329" d="
  M 375.96 335.24
  Q 343.36 354.91 326.29 363.79
  Q 316.93 368.66 302.60 371.21
  Q 297.37 367.42 297.38 360.50
  Q 297.42 330.74 297.04 309.50
  C 296.64 287.70 271.59 277.98 256.09 291.71
  Q 248.03 298.83 248.11 311.74
  Q 248.23 330.92 248.05 350.41
  Q 222.94 339.08 198.87 336.41
  Q 188.43 335.26 169.91 335.54
  L 169.47 267.24
  A 0.26 0.25 -1.1 0 0 169.20 266.99
  Q 163.73 267.22 158.54 267.19
  Q 152.48 267.16 151.50 266.97
  C 146.64 266.04 144.00 261.43 145.16 256.80
  Q 145.77 254.39 149.20 251.85
  C 153.10 248.95 155.33 247.46 159.57 244.35
  Q 245.73 181.06 258.03 172.02
  Q 262.28 168.90 265.90 167.22
  C 272.30 164.26 276.60 165.31 282.46 169.05
  Q 286.36 171.54 292.36 175.90
  Q 352.22 219.42 386.95 245.29
  Q 392.45 249.38 396.52 252.23
  C 399.12 254.06 400.63 256.75 400.04 260.04
  Q 398.74 267.33 390.24 267.17
  Q 389.61 267.16 376.46 267.08
  A 0.44 0.43 -89.4 0 0 376.02 267.52
  L 375.96 335.24
  Z"
/>
<path fill="#fbf6e9" d="
  M 561.80 242.86
  C 561.74 240.84 562.52 238.38 562.74 236.05
  Q 563.52 228.05 563.85 226.06
  Q 567.31 205.06 575.33 182.98
  A 1.12 1.12 0.0 0 1 576.82 182.33
  L 576.87 182.35
  A 1.48 1.48 0.0 0 1 577.75 184.01
  Q 572.60 209.56 572.20 211.22
  Q 569.46 222.64 566.88 229.96
  Q 564.43 236.89 562.76 242.98
  A 0.49 0.49 0.0 0 1 561.80 242.86
  Z"
/>
<path fill="#fbf6e9" d="
  M 594.75 264.69
  A 0.42 0.41 2.9 0 1 594.32 264.22
  Q 594.97 259.73 598.14 256.67
  Q 605.60 249.49 614.17 245.57
  A 0.52 0.52 0.0 0 1 614.87 246.25
  C 613.43 249.67 608.25 253.30 604.83 255.74
  Q 599.50 259.54 595.68 264.29
  Q 595.60 264.39 595.25 264.56
  Q 594.98 264.69 594.75 264.69
  Z"
/>
<path fill="#fbf6e9" d="
  M 540.01 306.77
  L 540.00 306.80
  A 0.57 0.56 -55.9 0 1 539.06 306.99
  Q 524.03 290.66 511.79 281.47
  Q 509.80 279.98 508.86 278.09
  A 0.75 0.75 0.0 0 1 509.69 277.03
  C 513.27 277.82 518.28 281.71 520.10 283.48
  Q 530.86 293.95 539.78 305.30
  A 1.51 1.51 0.0 0 1 540.01 306.77
  Z"
/>
<path fill="#736734" d="
  M 169.91 335.54
  Q 188.43 335.26 198.87 336.41
  Q 222.94 339.08 248.05 350.41
  Q 269.38 360.10 283.21 368.05
  Q 290.92 372.47 336.59 400.64
  Q 358.94 414.42 388.40 425.72
  Q 407.00 432.85 430.20 437.93
  Q 450.84 442.44 473.28 444.62
  Q 474.82 444.77 487.00 445.26
  Q 488.24 445.31 488.66 446.03
  A 2.11 1.89 66.1 0 1 487.69 449.03
  C 484.69 449.90 481.77 450.69 478.43 451.08
  Q 461.09 453.12 443.75 453.34
  Q 443.73 453.34 426.42 452.78
  Q 416.27 452.45 409.13 451.53
  Q 389.75 449.03 379.65 446.59
  C 353.27 440.22 329.45 432.00 298.65 420.92
  Q 281.17 414.63 253.62 406.67
  Q 230.18 399.90 198.25 394.95
  C 191.93 393.97 186.50 393.93 180.70 393.05
  Q 177.09 392.51 173.67 392.38
  Q 148.89 391.40 134.62 392.72
  Q 117.60 394.28 93.19 401.55
  Q 88.51 402.94 86.68 402.48
  Q 83.52 401.69 83.24 397.28
  Q 82.65 388.09 83.00 380.76
  C 83.19 376.70 85.98 373.77 89.95 371.19
  Q 116.17 354.19 134.19 344.95
  Q 139.99 341.98 148.26 339.28
  Q 158.02 336.09 169.91 335.54
  Z"
/>
</svg>
